<svg version="1.1" viewBox="31.20 6.39 384.39 173.89" fill="none" stroke="none" stroke-linecap="square" stroke-miterlimit="10" xmlns:xlink="http://www.w3.org/1999/xlink" xmlns="http://www.w3.org/2000/svg"><clipPath id="p.0"><path d="m0 0l446.99213 0l0 195.27034l-446.99213 0l0 -195.27034z" clip-rule="nonzero"/></clipPath><g clip-path="url(#p.0)"><path fill="#000000" fill-opacity="0.0" d="m0 0l446.99213 0l0 195.27034l-446.99213 0z" fill-rule="evenodd"/><path fill="#000000" fill-opacity="0.0" d="m0 0l446.07874 0l0 190.04724l-446.07874 0z" fill-rule="evenodd"/><path fill="#361a54" d="m65.00812 12.4645l17.09375 45.65625l-10.4375 0l-3.4375 -10.15625l-17.09375 0l-3.59375 10.1875l-10.15625 0l17.34375 -45.6875l10.28125 0zm-5.3125 11.25l-5.9375 16.78125l11.84375 0l-5.75 -16.78125l-0.15625 0zm36.4375 -11.25l0 45.6875l-10.0625 0l0 -45.6875l10.0625 0zm51.5 0q5.53125 0 9.328125 3.5625q3.796875 3.5625 3.796875 9.0625q0 4.3125 -1.796875 7.140625q-1.796875 2.828125 -5.453125 4.296875l0 0.125q3.21875 0.84375 4.9375 3.84375q1.71875 3.0 1.875 9.1875q0.125 6.1875 1.78125 8.46875l-10.0625 0q-0.875 -2.21875 -1.1875 -7.1875q-0.46875 -6.75 -2.265625 -8.703125q-1.796875 -1.953125 -5.515625 -1.953125l-10.28125 0l0 17.84375l-10.0625 0l0 -45.6875l24.90625 0zm-3.625 20.65625q3.15625 0 4.921875 -1.53125q1.765625 -1.53125 1.765625 -5.0q0 -3.25 -1.703125 -4.78125q-1.703125 -1.53125 -4.984375 -1.53125l-11.21875 0l0 12.84375l11.21875 0zm39.28125 -8.9375q7.34375 0 11.734375 5.046875q4.390625 5.046875 4.390625 12.890625l-0.0625 1.6875l-23.875 0q0.1875 4.28125 2.234375 6.34375q2.046875 2.0625 5.859375 2.0625q2.46875 0 4.5625 -1.265625q2.09375 -1.265625 2.65625 -3.046875l8.0 0q-1.84375 5.625 -5.6875 8.390625q-3.84375 2.765625 -9.8125 2.765625q-7.65625 0 -12.28125 -4.84375q-4.625 -4.84375 -4.625 -12.5625q0 -7.40625 4.734375 -12.4375q4.734375 -5.03125 12.171875 -5.03125zm-7.8125 13.875l14.78125 0q-0.65625 -3.65625 -2.359375 -5.34375q-1.703125 -1.6875 -4.921875 -1.6875q-3.3125 0 -5.25 1.875q-1.9375 1.875 -2.25 5.15625zm42.84375 -13.875q6.75 0 10.421875 2.671875q3.671875 2.671875 4.171875 7.859375l-8.65625 0q-0.1875 -2.34375 -1.75 -3.40625q-1.5625 -1.0625 -4.46875 -1.0625q-2.625 0 -3.828125 0.78125q-1.203125 0.78125 -1.203125 2.28125q0 1.53125 1.578125 2.515625q1.578125 0.984375 6.359375 1.890625q7.625 1.46875 10.234375 3.78125q2.609375 2.3125 2.609375 6.0625q0 5.625 -4.109375 8.5625q-4.109375 2.9375 -10.984375 2.9375q-6.875 0 -11.078125 -2.921875q-4.203125 -2.921875 -4.484375 -8.734375l8.65625 0q0 2.625 1.984375 4.09375q1.984375 1.46875 4.984375 1.46875q2.65625 0 4.3125 -1.140625q1.65625 -1.140625 1.65625 -3.078125q0 -1.71875 -2.15625 -2.8125q-2.15625 -1.09375 -7.90625 -2.28125q-5.6875 -1.125 -8.21875 -3.21875q-2.53125 -2.09375 -2.53125 -5.65625q0 -5.25 3.71875 -7.921875q3.71875 -2.671875 10.6875 -2.671875zm36.09375 0q7.34375 0 11.734375 5.046875q4.390625 5.046875 4.390625 12.890625l-0.0625 1.6875l-23.875 0q0.1875 4.28125 2.234375 6.34375q2.046875 2.0625 5.859375 2.0625q2.46875 0 4.5625 -1.265625q2.09375 -1.265625 2.65625 -3.046875l8.0 0q-1.84375 5.625 -5.6875 8.390625q-3.84375 2.765625 -9.8125 2.765625q-7.65625 0 -12.28125 -4.84375q-4.625 -4.84375 -4.625 -12.5625q0 -7.40625 4.734375 -12.4375q4.734375 -5.03125 12.171875 -5.03125zm-7.8125 13.875l14.78125 0q-0.65625 -3.65625 -2.359375 -5.34375q-1.703125 -1.6875 -4.921875 -1.6875q-3.3125 0 -5.25 1.875q-1.9375 1.875 -2.25 5.15625zm44.46875 -13.875q7.34375 0 10.921875 2.40625q3.578125 2.40625 3.578125 6.78125l0 17.75q0 2.0 0.265625 4.0q0.265625 2.0 0.890625 3.03125l-9.21875 0q-0.25 -0.75 -0.421875 -1.546875q-0.171875 -0.796875 -0.234375 -1.609375q-1.90625 1.96875 -4.734375 3.015625q-2.828125 1.046875 -6.390625 1.046875q-5.125 0 -8.1875 -2.578125q-3.0625 -2.578125 -3.0625 -7.359375q0 -4.625 2.875 -7.078125q2.875 -2.453125 10.46875 -3.296875q5.28125 -0.5 6.96875 -1.296875q1.6875 -0.796875 1.6875 -2.765625q0 -2.21875 -1.296875 -3.328125q-1.296875 -1.109375 -4.546875 -1.109375q-2.8125 0 -4.3125 1.203125q-1.5 1.203125 -1.75 3.796875l-9.09375 0q0.375 -5.4375 4.484375 -8.25q4.109375 -2.8125 11.109375 -2.8125zm-7.53125 24.5625q0 1.96875 1.34375 3.09375q1.34375 1.125 4.25 1.125q3.625 0 5.484375 -1.90625q1.859375 -1.90625 1.859375 -5.5625l0 -3.53125q-0.8125 0.65625 -2.140625 0.984375q-1.328125 0.328125 -4.796875 0.828125q-3.09375 0.40625 -4.546875 1.609375q-1.453125 1.203125 -1.453125 3.359375zm48.375 -24.5625q0.59375 0 1.09375 0.078125q0.5 0.078125 0.9375 0.234375l0 8.4375q-0.78125 -0.15625 -1.515625 -0.234375q-0.734375 -0.078125 -1.734375 -0.078125q-4.59375 0 -6.796875 2.8125q-2.203125 2.8125 -2.203125 7.53125l0 15.1875l-9.0625 0l0 -33.09375l8.625 0l0 6.15625l0.125 0q1.4375 -3.25 4.296875 -5.140625q2.859375 -1.890625 6.234375 -1.890625zm20.96875 0q6.40625 0 10.796875 3.3125q4.390625 3.3125 4.765625 9.21875l-8.90625 0q-0.40625 -2.84375 -2.09375 -4.265625q-1.6875 -1.421875 -4.625 -1.421875q-3.65625 0 -5.6875 3.0q-2.03125 3.0 -2.03125 7.75q0 4.75 2.0 7.59375q2.0 2.84375 5.53125 2.84375q3.03125 0 4.90625 -1.734375q1.875 -1.734375 2.34375 -5.015625l8.75 0q-0.90625 6.5625 -5.125 10.078125q-4.21875 3.515625 -10.8125 3.515625q-7.375 0 -12.03125 -4.734375q-4.65625 -4.734375 -4.65625 -12.234375q0 -8.03125 4.578125 -12.96875q4.578125 -4.9375 12.296875 -4.9375zm29.96875 -11.71875l0 17.21875l0.21875 0q1.4375 -2.46875 4.078125 -3.984375q2.640625 -1.515625 5.640625 -1.515625q6.3125 0 9.171875 3.21875q2.859375 3.21875 2.859375 10.0625l0 20.6875l-9.09375 0l0 -18.96875q0 -3.875 -1.328125 -5.859375q-1.328125 -1.984375 -4.484375 -1.984375q-3.78125 0 -5.421875 2.25q-1.640625 2.25 -1.640625 6.90625l0 17.65625l-9.0625 0l0 -45.6875l9.0625 0z" fill-rule="nonzero"/><path fill="#dcb20e" d="m71.32062 73.9045l0 8.4375l-22.0625 0l0 10.5625l19.125 0l0 7.8125l-19.125 0l0 18.875l-10.0625 0l0 -45.6875l32.125 0zm18.25 11.71875q7.78125 0 12.46875 4.796875q4.6875 4.796875 4.6875 12.671875q0 7.90625 -4.734375 12.65625q-4.734375 4.75 -12.421875 4.75q-7.6875 0 -12.390625 -4.78125q-4.703125 -4.78125 -4.703125 -12.625q0 -7.84375 4.625 -12.65625q4.625 -4.8125 12.46875 -4.8125zm-8.0 17.46875q0 5.21875 2.140625 7.890625q2.140625 2.671875 5.859375 2.671875q3.875 0 5.96875 -2.765625q2.09375 -2.765625 2.09375 -7.796875q0 -4.9375 -2.03125 -7.78125q-2.03125 -2.84375 -6.09375 -2.84375q-3.65625 0 -5.796875 2.640625q-2.140625 2.640625 -2.140625 7.984375zm40.09375 -16.59375l0 18.96875q0 3.75 1.3125 5.796875q1.3125 2.046875 4.53125 2.046875q3.75 0 5.390625 -2.265625q1.640625 -2.265625 1.640625 -6.890625l0 -17.65625l9.09375 0l0 33.09375l-8.65625 0l0 -4.59375l-0.1875 0q-1.71875 2.75 -4.4375 4.125q-2.71875 1.375 -5.71875 1.375q-6.15625 0 -9.09375 -3.140625q-2.9375 -3.140625 -2.9375 -10.140625l0 -20.71875l9.0625 0zm47.84375 -0.875q6.34375 0 9.203125 3.203125q2.859375 3.203125 2.859375 10.078125l0 20.6875l-9.09375 0l0 -18.96875q0 -3.875 -1.328125 -5.859375q-1.328125 -1.984375 -4.484375 -1.984375q-3.78125 0 -5.421875 2.25q-1.640625 2.25 -1.640625 6.90625l0 17.65625l-9.0625 0l0 -33.09375l8.625 0l0 4.625l0.1875 0q1.65625 -2.65625 4.3125 -4.078125q2.65625 -1.421875 5.84375 -1.421875zm51.21875 -11.71875l0 45.6875l-8.65625 0l0 -4.21875l-0.125 0q-1.46875 2.53125 -4.046875 3.828125q-2.578125 1.296875 -5.984375 1.296875q-6.78125 0 -10.8125 -4.984375q-4.03125 -4.984375 -4.03125 -12.765625q0 -7.375 3.96875 -12.25q3.96875 -4.875 10.6875 -4.875q3.09375 0 5.65625 1.25q2.5625 1.25 4.125 3.65625l0.125 0l0 -16.625l9.09375 0zm-24.59375 29.09375q0 4.625 2.15625 7.640625q2.15625 3.015625 5.84375 3.015625q3.78125 0 5.796875 -2.796875q2.015625 -2.796875 2.015625 -7.890625q0 -4.84375 -1.96875 -7.671875q-1.96875 -2.828125 -5.875 -2.828125q-3.78125 0 -5.875 2.828125q-2.09375 2.828125 -2.09375 7.703125zm46.625 -17.375q7.34375 0 10.921875 2.40625q3.578125 2.40625 3.578125 6.78125l0 17.75q0 2.0 0.265625 4.0q0.265625 2.0 0.890625 3.03125l-9.21875 0q-0.25 -0.75 -0.421875 -1.546875q-0.171875 -0.796875 -0.234375 -1.609375q-1.90625 1.96875 -4.734375 3.015625q-2.828125 1.046875 -6.390625 1.046875q-5.125 0 -8.1875 -2.578125q-3.0625 -2.578125 -3.0625 -7.359375q0 -4.625 2.875 -7.078125q2.875 -2.453125 10.46875 -3.296875q5.28125 -0.5 6.96875 -1.296875q1.6875 -0.796875 1.6875 -2.765625q0 -2.21875 -1.296875 -3.328125q-1.296875 -1.109375 -4.546875 -1.109375q-2.8125 0 -4.3125 1.203125q-1.5 1.203125 -1.75 3.796875l-9.09375 0q0.375 -5.4375 4.484375 -8.25q4.109375 -2.8125 11.109375 -2.8125zm-7.53125 24.5625q0 1.96875 1.34375 3.09375q1.34375 1.125 4.25 1.125q3.625 0 5.484375 -1.90625q1.859375 -1.90625 1.859375 -5.5625l0 -3.53125q-0.8125 0.65625 -2.140625 0.984375q-1.328125 0.328125 -4.796875 0.828125q-3.09375 0.40625 -4.546875 1.609375q-1.453125 1.203125 -1.453125 3.359375zm40.59375 -33.59375l0 9.90625l6.65625 0l0 6.09375l-6.65625 0l0 16.59375q0 2.03125 0.765625 2.828125q0.765625 0.796875 3.078125 0.796875q0.78125 0 1.5 -0.0625q0.71875 -0.0625 1.3125 -0.1875l0 7.09375q-1.125 0.1875 -2.515625 0.25q-1.390625 0.0625 -2.734375 0.0625q-5.90625 0 -8.203125 -2.015625q-2.296875 -2.015625 -2.296875 -5.640625l0 -19.71875l-5.5 0l0 -6.09375l5.5 0l0 -9.90625l9.09375 0zm20.375 -2.6875l0 7.46875l-9.09375 0l0 -7.46875l9.09375 0zm0 12.59375l0 33.09375l-9.09375 0l0 -33.09375l9.09375 0zm23.21875 -0.875q7.78125 0 12.46875 4.796875q4.6875 4.796875 4.6875 12.671875q0 7.90625 -4.734375 12.65625q-4.734375 4.75 -12.421875 4.75q-7.6875 0 -12.390625 -4.78125q-4.703125 -4.78125 -4.703125 -12.625q0 -7.84375 4.625 -12.65625q4.625 -4.8125 12.46875 -4.8125zm-8.0 17.46875q0 5.21875 2.140625 7.890625q2.140625 2.671875 5.859375 2.671875q3.875 0 5.96875 -2.765625q2.09375 -2.765625 2.09375 -7.796875q0 -4.9375 -2.03125 -7.78125q-2.03125 -2.84375 -6.09375 -2.84375q-3.65625 0 -5.796875 2.640625q-2.140625 2.640625 -2.140625 7.984375zm50.0 -17.46875q6.34375 0 9.203125 3.203125q2.859375 3.203125 2.859375 10.078125l0 20.6875l-9.09375 0l0 -18.96875q0 -3.875 -1.328125 -5.859375q-1.328125 -1.984375 -4.484375 -1.984375q-3.78125 0 -5.421875 2.25q-1.640625 2.25 -1.640625 6.90625l0 17.65625l-9.0625 0l0 -33.09375l8.625 0l0 4.625l0.1875 0q1.65625 -2.65625 4.3125 -4.078125q2.65625 -1.421875 5.84375 -1.421875zm32.53125 0q6.75 0 10.421875 2.671875q3.671875 2.671875 4.171875 7.859375l-8.65625 0q-0.1875 -2.34375 -1.75 -3.40625q-1.5625 -1.0625 -4.46875 -1.0625q-2.625 0 -3.828125 0.78125q-1.203125 0.78125 -1.203125 2.28125q0 1.53125 1.578125 2.515625q1.578125 0.984375 6.359375 1.890625q7.625 1.46875 10.234375 3.78125q2.609375 2.3125 2.609375 6.0625q0 5.625 -4.109375 8.5625q-4.109375 2.9375 -10.984375 2.9375q-6.875 0 -11.078125 -2.921875q-4.203125 -2.921875 -4.484375 -8.734375l8.65625 0q0 2.625 1.984375 4.09375q1.984375 1.46875 4.984375 1.46875q2.65625 0 4.3125 -1.140625q1.65625 -1.140625 1.65625 -3.078125q0 -1.71875 -2.15625 -2.8125q-2.15625 -1.09375 -7.90625 -2.28125q-5.6875 -1.125 -8.21875 -3.21875q-2.53125 -2.09375 -2.53125 -5.65625q0 -5.25 3.71875 -7.921875q3.71875 -2.671875 10.6875 -2.671875z" fill-rule="nonzero"/><path fill="#361a54" d="m49.85002 158.64526l0 1.703125l-7.96875 0l0 4.828125l7.0 0l0 1.703125l-7.0 0l0 6.984375l-2.015625 0l0 -15.21875l9.984375 0zm14.625778 -0.375q2.21875 0 3.859375 1.03125q1.640625 1.03125 2.53125 2.890625q0.90625 1.84375 0.90625 4.0625q0 2.21875 -0.890625 4.078125q-0.890625 1.84375 -2.5625 2.875q-1.65625 1.015625 -3.84375 1.015625q-2.203125 0 -3.859375 -1.015625q-1.640625 -1.015625 -2.546875 -2.859375q-0.890625 -1.859375 -0.890625 -4.09375q0 -3.453125 1.984375 -5.71875q1.984375 -2.265625 5.3125 -2.265625zm-5.28125 7.984375q0 1.6875 0.625 3.15625q0.625 1.46875 1.828125 2.296875q1.203125 0.8125 2.828125 0.8125q2.4375 0 3.84375 -1.765625q1.421875 -1.765625 1.421875 -4.5q0 -2.71875 -1.40625 -4.484375q-1.390625 -1.78125 -3.890625 -1.78125q-2.4375 0 -3.84375 1.796875q-1.40625 1.78125 -1.40625 4.46875zm28.22377 -7.609375q1.984375 0 3.25 1.046875q1.28125 1.046875 1.28125 2.9375q0 1.5 -0.65625 2.484375q-0.65625 0.984375 -1.984375 1.359375l0 0.046875q1.15625 0.234375 1.703125 1.078125q0.546875 0.84375 0.625 2.90625q0.046875 1.34375 0.25 2.109375q0.203125 0.75 0.59375 1.25l-2.265625 0q-0.1875 -0.25 -0.25 -0.484375q-0.046875 -0.25 -0.09375 -0.6875l-0.09375 -1.671875q-0.03125 -1.171875 -0.5 -2.390625q-0.46875 -1.21875 -2.078125 -1.28125l-5.015625 0l0 6.515625l-2.015625 0l0 -15.21875l7.25 0zm-0.90625 7.015625q1.6875 0 2.546875 -0.65625q0.875 -0.671875 0.875 -2.0625q0 -1.234375 -0.703125 -1.90625q-0.6875 -0.6875 -1.9375 -0.6875l-5.109375 0l0 5.3125l4.328125 0zm28.05983 -7.015625l0 6.53125l8.015625 0l0 -6.53125l2.03125 0l0 15.21875l-2.03125 0l0 -6.984375l-8.015625 0l0 6.984375l-2.015625 0l0 -15.21875l2.015625 0zm21.406265 0l0 15.21875l-2.015625 0l0 -15.21875l2.015625 0zm15.851379 -0.375q2.703125 0 4.421875 1.296875q1.734375 1.296875 2.125 3.75l-2.03125 0q-0.296875 -1.609375 -1.484375 -2.46875q-1.171875 -0.859375 -3.03125 -0.859375q-2.4375 0 -3.828125 1.796875q-1.390625 1.796875 -1.390625 4.65625q0 2.609375 1.4375 4.34375q1.4375 1.734375 3.78125 1.734375q2.1875 0 3.53125 -1.3125q1.359375 -1.328125 1.359375 -3.421875l0 -0.234375l-4.875 0l0 -1.703125l6.671875 0l0 8.015625l-1.265625 0l-0.546875 -1.890625q-0.828125 1.078125 -2.109375 1.671875q-1.28125 0.578125 -2.765625 0.578125q-3.125 0 -5.1875 -2.234375q-2.0625 -2.234375 -2.0625 -5.453125q0 -3.59375 1.953125 -5.921875q1.953125 -2.34375 5.296875 -2.34375zm17.624817 0.375l0 6.53125l8.015625 0l0 -6.53125l2.03125 0l0 15.21875l-2.03125 0l0 -6.984375l-8.015625 0l0 6.984375l-2.015625 0l0 -15.21875l2.015625 0zm29.812515 0l0 1.703125l-8.484375 0l0 4.828125l7.90625 0l0 1.703125l-7.90625 0l0 5.28125l8.5625 0l0 1.703125l-10.578125 0l0 -15.21875l10.5 0zm15.70372 0q1.984375 0 3.25 1.046875q1.28125 1.046875 1.28125 2.9375q0 1.5 -0.65625 2.484375q-0.65625 0.984375 -1.984375 1.359375l0 0.046875q1.15625 0.234375 1.703125 1.078125q0.546875 0.84375 0.625 2.90625q0.046875 1.34375 0.25 2.109375q0.203125 0.75 0.59375 1.25l-2.265625 0q-0.1875 -0.25 -0.25 -0.484375q-0.046875 -0.25 -0.09375 -0.6875l-0.09375 -1.671875q-0.03125 -1.171875 -0.5 -2.390625q-0.46875 -1.21875 -2.078125 -1.28125l-5.015625 0l0 6.515625l-2.015625 0l0 -15.21875l7.25 0zm-0.90625 7.015625q1.6875 0 2.546875 -0.65625q0.875 -0.671875 0.875 -2.0625q0 -1.234375 -0.703125 -1.90625q-0.6875 -0.6875 -1.9375 -0.6875l-5.109375 0l0 5.3125l4.328125 0zm36.544205 -7.015625l0 1.703125l-8.484375 0l0 4.828125l7.90625 0l0 1.703125l-7.90625 0l0 5.28125l8.5625 0l0 1.703125l-10.578125 0l0 -15.21875l10.5 0zm13.797455 0q3.453125 0 5.3125 1.828125q1.875 1.828125 1.875 5.421875q0 4.015625 -1.84375 6.0q-1.84375 1.96875 -5.34375 1.96875l-5.34375 0l0 -15.21875l5.34375 0zm0.125 13.515625q2.28125 0 3.65625 -1.484375q1.375 -1.5 1.375 -4.515625q0 -3.015625 -1.25 -4.40625q-1.25 -1.40625 -3.71875 -1.40625l-3.515625 0l0 11.8125l3.453125 0zm17.41156 -13.515625l0 9.796875q0 1.875 1.0625 2.984375q1.0625 1.09375 3.15625 1.09375q1.96875 0 2.96875 -1.09375q1.0 -1.109375 1.0 -2.984375l0 -9.796875l2.015625 0l0 9.828125q0 2.6875 -1.5 4.21875q-1.5 1.53125 -4.484375 1.53125q-3.109375 0 -4.6875 -1.5q-1.5625 -1.5 -1.5625 -4.25l0 -9.828125l2.03125 0zm25.843811 -0.375q2.53125 0 4.234375 1.3125q1.703125 1.3125 2.03125 3.640625l-2.015625 0q-0.34375 -1.5625 -1.46875 -2.390625q-1.125 -0.84375 -2.796875 -0.84375q-2.421875 0 -3.796875 1.703125q-1.359375 1.703125 -1.359375 4.453125q0 2.921875 1.34375 4.65625q1.34375 1.71875 3.828125 1.71875q1.859375 0 3.046875 -1.171875q1.203125 -1.1875 1.34375 -3.21875l2.03125 0q-0.328125 2.953125 -2.0625 4.53125q-1.71875 1.5625 -4.53125 1.5625q-3.265625 0 -5.15625 -2.15625q-1.875 -2.171875 -1.875 -5.78125q0 -3.546875 1.9375 -5.78125q1.953125 -2.234375 5.265625 -2.234375zm21.25 0.375l5.9375 15.21875l-2.234375 0l-1.65625 -4.578125l-6.453125 0l-1.703125 4.578125l-2.078125 0l5.9375 -15.21875l2.25 0zm-1.1875 1.828125l-2.5625 7.09375l5.15625 0l-2.53125 -7.09375l-0.0625 0zm25.104553 -1.828125l0 1.703125l-5.078125 0l0 13.515625l-2.015625 0l0 -13.515625l-5.078125 0l0 -1.703125l12.171875 0zm9.719543 0l0 15.21875l-2.015625 0l0 -15.21875l2.015625 0zm15.788879 -0.375q2.21875 0 3.859375 1.03125q1.640625 1.03125 2.53125 2.890625q0.90625 1.84375 0.90625 4.0625q0 2.21875 -0.890625 4.078125q-0.890625 1.84375 -2.5625 2.875q-1.65625 1.015625 -3.84375 1.015625q-2.203125 0 -3.859375 -1.015625q-1.640625 -1.015625 -2.546875 -2.859375q-0.890625 -1.859375 -0.890625 -4.09375q0 -3.453125 1.984375 -5.71875q1.984375 -2.265625 5.3125 -2.265625zm-5.28125 7.984375q0 1.6875 0.625 3.15625q0.625 1.46875 1.828125 2.296875q1.203125 0.8125 2.828125 0.8125q2.4375 0 3.84375 -1.765625q1.421875 -1.765625 1.421875 -4.5q0 -2.71875 -1.40625 -4.484375q-1.390625 -1.78125 -3.890625 -1.78125q-2.4375 0 -3.84375 1.796875q-1.40625 1.78125 -1.40625 4.46875zm23.098755 -7.609375l8.015625 12.34375l0.046875 0l0 -12.34375l1.921875 0l0 15.21875l-2.21875 0l-7.953125 -12.21875l-0.046875 0l0 12.21875l-1.921875 0l0 -15.21875l2.15625 0z" fill-rule="nonzero"/></g></svg>